<svg width="64" height="64" viewBox="0 0 64 64" fill="none" xmlns="http://www.w3.org/2000/svg">
<rect width="64" height="64" rx="8" fill="#DBF9EF"/>
<path d="M19.6425 11.3985C18.1308 11.6797 17.1113 12.6465 16.7246 14.1055C16.6367 14.4219 16.6015 14.9668 16.6015 15.7227C16.6015 16.7774 16.5839 16.8828 16.4433 16.9707C16.3554 17.0235 16.2499 17.1992 16.1972 17.3926C15.9863 18.1836 16.4257 19.5899 17.1464 20.3809C17.2519 20.4863 17.3749 20.7324 17.4277 20.9082C17.5683 21.3301 17.9374 22.0508 18.1835 22.4024L18.3945 22.6836L17.7265 23.0703C17.3574 23.2813 16.2499 23.8613 15.2656 24.3535C13.6484 25.1621 13.4374 25.3028 12.998 25.7422C12.1894 26.586 11.6445 27.834 11.3632 29.4688C11.2402 30.2071 11.2402 30.3477 11.3281 30.5235C11.5566 30.9629 12.4355 31.209 15.2656 31.6133C17.4628 31.9297 19.6601 32.0528 21.8749 32L23.6152 31.9473L23.9492 31.6836C24.1249 31.543 24.4413 31.3145 24.6347 31.1914L25.0038 30.9805L24.6874 31.0332C23.9492 31.1387 18.7812 31.1738 17.6386 31.0684C16.2851 30.9629 13.1913 30.4883 12.5761 30.2949C12.1718 30.1719 12.1542 30.1543 12.1542 29.8906C12.1542 29.4336 12.541 28.0977 12.8398 27.4649C13.4199 26.2696 13.5253 26.1817 15.705 25.0742C17.3046 24.2656 19.3964 23.0879 19.6425 22.877C19.6777 22.8418 19.4843 22.5781 19.2206 22.2617C18.6933 21.6817 18.4824 21.3125 18.2538 20.627C18.166 20.3985 17.9726 20.0293 17.8144 19.8184C17.3574 19.2207 17.1113 18.6582 17.0585 18.1309C17.0234 17.6738 17.0234 17.6563 17.2343 17.6563H17.4453L17.4804 16.0039C17.5156 14.5449 17.5331 14.3164 17.6913 13.9121C18.0781 12.9102 18.957 12.2949 20.1523 12.1543C21.6992 11.9961 22.9296 12.3653 23.5273 13.209C24.0019 13.8594 24.0898 14.2461 24.1601 16.0391L24.2128 17.6738H24.4238C24.6171 17.6738 24.6347 17.6914 24.582 18.1133C24.5292 18.6406 24.2304 19.3086 23.8437 19.7656C23.6855 19.9414 23.457 20.3633 23.3515 20.6973C23.1054 21.3828 22.7363 21.9629 22.2792 22.4375C22.0859 22.6133 21.9453 22.7715 21.9453 22.8067C21.9453 22.9473 24.705 24.5293 26.041 25.127C26.3398 25.2676 26.6035 25.3906 26.6035 25.3906C26.6035 25.3906 26.6035 25.1797 26.5859 24.916L26.4804 24.4414L25.707 24.0547C25.0214 23.7207 23.5976 22.9297 23.2812 22.7188C23.1933 22.666 23.2285 22.5606 23.4746 22.2266C23.6503 21.9981 23.8964 21.5235 24.0195 21.1895C24.1425 20.8555 24.4238 20.3633 24.6171 20.0996C25.1269 19.4141 25.3203 18.834 25.373 17.9375C25.4081 17.2168 25.4081 17.1817 25.1972 16.9883C24.9863 16.7949 24.9863 16.7598 24.9863 15.793C24.9863 14.6153 24.8456 13.8946 24.5117 13.2266C24.0722 12.3477 23.3515 11.7676 22.3144 11.4688C21.664 11.3106 20.3456 11.2578 19.6425 11.3985Z" fill="#0075FD"/>
<path d="M42.4238 11.3282C41.0527 11.5391 40.0508 12.2071 39.541 13.2442C39.207 13.9121 39.0664 14.6328 39.0664 15.8106C39.0664 16.7774 39.0664 16.8125 38.8555 17.0059C38.6445 17.1992 38.6445 17.2168 38.6797 17.9551C38.7148 18.8516 38.9082 19.4141 39.4531 20.1348C39.6641 20.416 39.8926 20.8555 39.9805 21.1192C40.0684 21.3828 40.2969 21.8399 40.5078 22.1387C40.7715 22.543 40.8242 22.6836 40.7539 22.7364C40.4551 22.9473 39.0137 23.7207 38.3281 24.0723L37.5547 24.459L37.5195 24.9336C37.502 25.1973 37.502 25.4082 37.5195 25.4082C37.5371 25.4082 38.1523 25.0918 38.8906 24.7227C40.1211 24.1075 41.9141 23.0879 42.1074 22.8946C42.1602 22.8418 42.0371 22.6836 41.8086 22.4375C41.2461 21.8574 40.9648 21.418 40.7539 20.8203C40.6484 20.5039 40.4199 20.0645 40.209 19.7832C39.752 19.168 39.541 18.711 39.4883 18.1485C39.4355 17.7266 39.4531 17.709 39.6641 17.709H39.875V16.7598C39.8926 14.5625 40.0684 13.7891 40.6836 13.0684C41.2813 12.4004 42.5117 12.0664 43.8828 12.2246C45.1133 12.3477 45.9746 12.9629 46.3789 13.9824C46.5371 14.4043 46.5723 14.6328 46.5898 16.0742L46.625 17.7266H46.8359C47.0469 17.7266 47.0469 17.7266 47.0117 18.2012C46.959 18.7285 46.6953 19.291 46.2383 19.8887C46.0625 20.0996 45.8691 20.4512 45.8164 20.6446C45.6582 21.2071 45.3418 21.7696 44.9727 22.1739C44.252 22.9649 44.2168 22.8067 45.3418 23.4922C45.8867 23.8262 47.2402 24.5469 48.3301 25.1094C50.1582 26.041 50.334 26.1641 50.6328 26.5332C51.248 27.3418 51.7578 28.6426 51.8809 29.7325L51.9336 30.2071L51.5117 30.3301C50.8965 30.5235 47.7324 30.9981 46.4141 31.1035C45.3418 31.1914 40.1035 31.1563 39.4004 31.0508L39.084 30.9981L39.4531 31.209C39.6641 31.3321 39.9629 31.543 40.1387 31.7012L40.4551 31.9649L42.125 32.0176C44.2871 32.0879 46.6602 31.9649 48.8223 31.6485C51.7402 31.2266 52.5664 30.9805 52.7598 30.5059C52.9707 29.9785 52.4258 27.8164 51.8105 26.709C51.2305 25.6719 50.8965 25.4082 48.875 24.3887C47.873 23.8789 46.748 23.2989 46.3789 23.0703L45.7109 22.6836L45.9219 22.4024C46.1855 22.0508 46.5547 21.3477 46.6777 20.9082C46.7305 20.7325 46.8711 20.4864 46.959 20.3809C47.6621 19.6075 48.1191 18.1836 47.9082 17.3926C47.8555 17.1992 47.7324 17.0235 47.6621 16.9707C47.5215 16.8828 47.5039 16.795 47.5039 15.7227C47.5039 14.9668 47.4688 14.4043 47.3809 14.1055C47.0293 12.752 46.1328 11.8555 44.7969 11.4864C44.2695 11.3457 42.8633 11.2578 42.4238 11.3282Z" fill="#0075FD"/>
<path d="M31.3144 18.2539C29.8203 18.3946 28.8183 19.0625 28.2382 20.3106C28.0097 20.8028 27.9394 21.0489 27.8867 21.752C27.8515 22.209 27.8163 22.8594 27.7988 23.1934C27.7988 23.7032 27.7812 23.8086 27.623 23.9317C27.4824 24.0372 27.4296 24.1954 27.4121 24.5645C27.3417 25.4434 27.6581 26.3926 28.2734 27.1661C28.4492 27.377 28.6249 27.6934 28.6953 27.8692C28.8359 28.3086 29.1523 28.9414 29.3984 29.2754C29.5038 29.4161 29.5742 29.5743 29.5566 29.6094C29.4863 29.7149 28.0449 30.5235 26.3046 31.4024C24.8456 32.1407 24.6347 32.2637 24.2304 32.6856C23.5097 33.4766 22.9296 34.7422 22.666 36.1309C22.3847 37.6075 22.4902 37.7657 24.0371 38.1348C25.1269 38.3985 27.8867 38.7676 29.3632 38.8731C31.1386 38.9961 34.8652 38.9258 36.2363 38.75C39.1894 38.3809 40.8593 38.0118 41.2636 37.6778C41.5449 37.4317 41.5624 37.1329 41.3691 36.1309C41.1054 34.7422 40.5253 33.4766 39.8046 32.6856C39.4003 32.2637 39.1894 32.1231 37.6425 31.3497C35.7792 30.418 34.5488 29.75 34.4785 29.627C34.4609 29.5743 34.5136 29.4161 34.6191 29.293C34.8652 28.9766 35.1816 28.3262 35.3222 27.8868C35.3749 27.711 35.5507 27.4122 35.6913 27.2364C36.0605 26.7969 36.4296 26.0235 36.5351 25.4786C36.6757 24.8457 36.6054 24.125 36.3945 23.9493C36.2538 23.8438 36.2187 23.6856 36.1835 22.6485C36.1132 21.2247 36.0429 20.8204 35.6562 20.1172C34.9531 18.711 33.4062 18.0606 31.3144 18.2539ZM33.5644 19.2911C34.1972 19.5372 34.7246 20.0118 35.041 20.6622L35.3046 21.1895L35.3222 22.877L35.3398 24.5645L35.5507 24.5821C35.7617 24.5997 35.7617 24.6172 35.7441 25.0039C35.7265 25.4961 35.3749 26.252 34.9706 26.7266C34.8124 26.92 34.6367 27.2364 34.5839 27.4122C34.4257 28.0098 34.039 28.6602 33.5292 29.2051L33.037 29.7325L34.1445 30.3829C34.7597 30.752 36.0605 31.4375 37.0449 31.9473C39.0136 32.9141 39.2949 33.1426 39.7695 34.0391C39.9101 34.3204 40.121 34.795 40.2265 35.1114C40.4374 35.7442 40.7011 36.9395 40.6308 37.045C40.6132 37.0801 40.5078 37.1329 40.4199 37.1504C39.2597 37.3965 38.7851 37.4844 37.3964 37.6954C33.9335 38.2051 30.1191 38.2051 26.5156 37.6778C25.5488 37.5372 24.4238 37.3438 24.0546 37.2559L23.3691 37.0801L23.3867 36.7637C23.4394 36.1133 23.7382 35.0411 24.0898 34.3204C24.6523 33.1602 24.8632 32.9844 26.9726 31.9297C27.957 31.4375 29.2578 30.7344 29.8554 30.3829L30.9453 29.7325L30.4531 29.2051C29.9433 28.6602 29.5566 28.0098 29.3984 27.4122C29.3456 27.2188 29.1699 26.92 29.0117 26.7266C28.6074 26.2344 28.2734 25.4786 28.2382 25.0039C28.2206 24.6172 28.2206 24.5997 28.4316 24.5821L28.6425 24.5645L28.6601 22.877C28.6777 21.2598 28.6953 21.1895 28.8886 20.75C29.2753 19.9063 29.8554 19.4141 30.7519 19.168C31.455 19.0098 32.9492 19.0625 33.5644 19.2911Z" fill="#0075FD"/>
<path d="M13.5605 38.1172C13.2792 38.6797 13.121 38.9434 12.998 38.9609C12.8925 38.9785 12.5058 39.0488 12.1015 39.1016C11.6972 39.1543 11.3632 39.207 11.3281 39.2422C11.3105 39.2598 11.5917 39.5586 11.9609 39.8926L12.6288 40.5078L12.4706 41.4043C12.3827 41.8965 12.33 42.3008 12.3476 42.3184C12.3652 42.3359 12.7343 42.1602 13.1913 41.9316L13.9999 41.5098L14.7734 41.9316C15.2128 42.1602 15.582 42.3359 15.5995 42.3184C15.6171 42.3008 15.5644 41.8965 15.4941 41.4219L15.3534 40.5605L15.9863 39.9277C16.3378 39.5938 16.6191 39.2773 16.6191 39.2422C16.6191 39.2246 16.2851 39.1367 15.8808 39.1016C15.4589 39.0488 15.0546 38.9785 14.9843 38.9609C14.8964 38.9434 14.6679 38.5742 14.4394 38.1172C14.2109 37.6777 14.0175 37.3086 14.0175 37.3086C13.9648 37.3086 13.7714 37.6777 13.5605 38.1172ZM14.4921 39.7344C14.8085 39.7344 14.8437 39.8398 14.6152 40.0508C14.457 40.1914 14.4394 40.2793 14.4745 40.5078C14.5273 40.8242 14.4921 40.8242 14.1933 40.666C13.9999 40.5605 13.9472 40.5605 13.7714 40.666C13.4726 40.8242 13.4374 40.8066 13.4902 40.5078C13.5253 40.2969 13.5077 40.209 13.332 40.0508C13.0859 39.8223 13.121 39.7168 13.455 39.7168C13.6484 39.7168 13.7187 39.6641 13.8241 39.4355L13.9648 39.1367L14.1054 39.4355C14.2284 39.6816 14.2988 39.7344 14.4921 39.7344Z" fill="#0075FD"/>
<path d="M20.785 38.9785C20.1698 40.2441 19.9413 40.666 19.8182 40.6836C19.7128 40.7012 18.9745 40.8066 18.1483 40.9297C17.3222 41.0527 16.5663 41.1582 16.4608 41.1934C16.285 41.2285 16.4081 41.3691 17.6034 42.5645L18.9218 43.8828L18.6229 45.6758C18.4647 46.6602 18.3417 47.4863 18.3593 47.5039C18.3768 47.5215 19.1327 47.1523 20.0292 46.6777L21.664 45.8164L23.2987 46.6777C24.1952 47.1523 24.9511 47.5215 24.9686 47.5039C24.9862 47.4863 24.8632 46.6602 24.705 45.6758L24.3886 43.8828L25.6718 42.5469C26.8847 41.334 26.9901 41.2109 26.8143 41.1758C26.7089 41.1582 25.953 41.0352 25.1268 40.9297C24.3007 40.8242 23.5448 40.7187 23.4569 40.6836C23.3339 40.666 23.0878 40.2441 22.4901 38.9785C22.0507 38.0645 21.664 37.3086 21.6464 37.3086C21.5936 37.3086 21.2245 38.0645 20.785 38.9785ZM22.2265 40.3496C22.5253 40.9473 22.8065 41.4395 22.8417 41.4395C22.9823 41.4395 25.1444 41.7559 25.1796 41.791C25.1796 41.8086 24.8104 42.2129 24.3183 42.6875L23.4393 43.5488L23.6503 44.7266C23.7558 45.3594 23.8436 45.9043 23.8085 45.9395C23.7909 45.957 23.2811 45.7285 22.7011 45.4297L21.6288 44.8672L20.5741 45.4297C19.994 45.7461 19.5018 45.957 19.4667 45.9395C19.4491 45.9219 19.5194 45.377 19.6249 44.7266L19.8358 43.5664L18.9745 42.7051C18.4823 42.2129 18.1132 41.8262 18.1132 41.8086C18.1307 41.791 20.3104 41.457 20.4511 41.457C20.4862 41.457 20.7675 40.9648 21.0663 40.3672C21.3651 39.7695 21.6288 39.2773 21.664 39.2773C21.6464 39.2598 21.91 39.752 22.2265 40.3496Z" fill="#0075FD"/>
<path d="M41.5448 38.9785C40.9296 40.2441 40.7011 40.666 40.578 40.6836C40.4725 40.7012 39.7343 40.8066 38.9081 40.9297C38.0819 41.0527 37.3261 41.1582 37.2206 41.1934C37.0448 41.2285 37.1679 41.3691 38.3632 42.5645L39.6815 43.8828L39.3827 45.6758C39.2069 46.6602 39.0839 47.4863 39.119 47.5039C39.1366 47.5215 39.8925 47.1523 40.789 46.6777L42.4237 45.8164L44.0585 46.6777C44.955 47.1523 45.7108 47.5215 45.7284 47.5039C45.746 47.4863 45.6229 46.6602 45.4647 45.6758L45.1483 43.8828L46.4843 42.5469C47.6796 41.3516 47.785 41.2109 47.6268 41.1758C47.5214 41.1582 46.7655 41.0352 45.9393 40.9121C45.1132 40.8066 44.3573 40.7012 44.2694 40.666C44.1464 40.6484 43.9003 40.2266 43.3026 38.9609C42.8632 38.0469 42.4765 37.291 42.4589 37.291C42.371 37.3086 41.9843 38.0645 41.5448 38.9785ZM42.9862 40.3496C43.285 40.9473 43.5663 41.4395 43.6015 41.4395C43.7421 41.4395 45.9042 41.7559 45.9393 41.791C45.9393 41.8086 45.5702 42.2129 45.078 42.6875L44.1991 43.5488L44.41 44.7266C44.5155 45.3594 44.6034 45.9043 44.5683 45.9395C44.5507 45.957 44.0409 45.7285 43.4608 45.4121L42.4061 44.8496L41.3515 45.4121C40.7714 45.7285 40.2616 45.957 40.244 45.9395C40.2265 45.9219 40.2968 45.377 40.4022 44.7266L40.6132 43.5664L39.7518 42.7051C39.2597 42.2129 38.8905 41.8262 38.8905 41.8086C38.9081 41.791 41.0878 41.457 41.2284 41.457C41.2636 41.457 41.5448 40.9648 41.8436 40.3672C42.1425 39.7695 42.4061 39.2773 42.4413 39.2773C42.4765 39.2773 42.6874 39.752 42.9862 40.3496Z" fill="#0075FD"/>
<path d="M49.6133 38.0996C49.3672 38.5742 49.1387 38.9434 49.0508 38.9609C48.9629 38.9785 48.5586 39.0488 48.1543 39.1016C47.7324 39.1543 47.3984 39.2246 47.3984 39.2422C47.3984 39.2773 47.6797 39.5762 48.0312 39.9277L48.6641 40.5605L48.5059 41.4043C48.418 41.8789 48.3652 42.2832 48.4004 42.3008C48.418 42.3184 48.8047 42.1602 49.2441 41.9141L50.0352 41.4922L50.8789 41.9316C51.7051 42.3711 51.7227 42.3711 51.6699 42.1602C51.6523 42.0371 51.5645 41.6152 51.4941 41.2109L51.3711 40.4902L52.0566 39.8574C52.4258 39.5234 52.707 39.2246 52.6895 39.207C52.6719 39.1895 52.25 39.1016 51.7578 39.0313C51.2832 38.9609 50.8789 38.8906 50.8613 38.873C50.8613 38.8555 50.6504 38.4863 50.4395 38.0293L50.0352 37.2207L49.6133 38.0996ZM50.5273 39.7344C50.8789 39.7344 50.9492 39.8574 50.7031 40.0508C50.5098 40.209 50.4922 40.2617 50.5273 40.5078C50.5977 40.8242 50.5801 40.8418 50.2637 40.6836C50.0703 40.5781 50.0176 40.5781 49.8418 40.6836C49.543 40.8418 49.4902 40.8242 49.543 40.5254C49.5781 40.3145 49.543 40.209 49.4023 40.0684C49.1738 39.8574 49.209 39.752 49.5254 39.752C49.7363 39.752 49.7891 39.6992 49.8945 39.4355L50.0176 39.1367L50.1758 39.4355C50.2988 39.6465 50.3867 39.7344 50.5273 39.7344Z" fill="#0075FD"/>
<path d="M30.998 42.7402C30.0839 44.5859 30.0312 44.6738 29.7851 44.7266C29.6445 44.7441 28.7304 44.8848 27.7812 45.0254C26.832 45.166 25.953 45.2891 25.8652 45.3066C25.7245 45.3418 25.953 45.6055 27.2538 46.9063L28.8183 48.4707L28.4491 50.5625C28.2382 51.7227 28.0976 52.6719 28.1327 52.6895C28.1503 52.707 28.9941 52.2852 30.0312 51.7402C31.0507 51.1953 31.9296 50.7559 31.9999 50.7559C32.0527 50.7559 32.9491 51.1953 33.9687 51.7402C34.9882 52.2676 35.8495 52.707 35.8671 52.6895C35.8847 52.6719 35.7441 51.7051 35.5507 50.5625L35.1816 48.4707L36.746 46.9063C37.7655 45.8867 38.2577 45.3242 38.1698 45.3066C38.1171 45.2891 37.2558 45.166 36.2714 45.0078C35.287 44.8672 34.373 44.7266 34.2323 44.709C33.9687 44.6738 33.9335 44.6035 33.0195 42.7227C32.4921 41.668 32.0527 40.7891 32.0175 40.7891C31.9823 40.7891 31.5253 41.668 30.998 42.7402ZM32.7382 44.0586L33.4238 45.4473L34.8827 45.6582C35.6913 45.7812 36.3769 45.8691 36.4296 45.8691C36.4648 45.8691 36.0077 46.3789 35.3925 46.9941L34.2851 48.1191L34.5312 49.5957C34.6718 50.4219 34.7597 51.0898 34.7421 51.125C34.7245 51.1426 34.1093 50.8613 33.3886 50.4746C32.6679 50.0879 32.0351 49.7715 31.9999 49.7715C31.9648 49.7715 31.332 50.0879 30.6113 50.4746C29.8905 50.8613 29.2929 51.1426 29.2577 51.125C29.2402 51.1074 29.328 50.4043 29.4687 49.5957L29.7323 48.1191L28.6249 47.0117L27.5175 45.9043L27.7988 45.8516C27.957 45.834 28.6425 45.7285 29.3281 45.623L30.5937 45.4473L31.2792 44.0586C31.6659 43.2852 31.9823 42.6699 32.0175 42.6699C32.0351 42.6699 32.3515 43.3027 32.7382 44.0586Z" fill="#0075FD"/>
</svg>
