<svg width="64" height="64" viewBox="0 0 64 64" fill="none" xmlns="http://www.w3.org/2000/svg">
<rect width="64" height="64" rx="8" fill="#DBF9EF"/>
<path d="M45.9305 23.9407C45.922 24.0135 45.9006 24.0862 45.8665 24.1504C45.8281 24.313 45.811 24.497 45.811 24.6981C45.811 24.7195 45.8153 24.7366 45.8153 24.758V38.0868C45.9817 38.5061 46.1907 38.8185 46.4381 39.0153C46.6685 39.1993 46.95 39.2892 47.2956 39.272C47.3212 39.2678 47.3425 39.2678 47.3681 39.2678H51.1776C51.1861 39.2678 51.1989 39.2678 51.2074 39.2678C51.8004 39.2977 52.2313 39.1351 52.5171 38.8056C52.8413 38.4334 53.029 37.8258 53.093 37.0171V37.0085L54.2533 24.9805C54.2533 24.9634 54.2533 24.942 54.2576 24.9249C54.3386 24.2402 54.1893 23.7952 53.8523 23.5385C53.4684 23.239 52.8242 23.1149 51.9966 23.1192C51.9753 23.1192 51.9582 23.1234 51.9369 23.1234H47.6454V23.1192C46.9884 23.1192 46.5107 23.2518 46.2163 23.5171C46.0926 23.6326 45.9987 23.7696 45.9305 23.9407ZM41.7328 38.6901C41.639 38.6045 41.575 38.489 41.5494 38.3606L35.4278 27.3082C34.7495 26.17 34.1352 26.1401 33.5423 26.4952C33.1242 26.7477 32.6805 27.1542 32.2369 27.5607C31.9681 27.8046 31.7036 28.0527 31.4733 28.2367L30.4239 29.1096L30.4153 29.1139C29.6517 29.7344 28.7858 30.0638 27.9667 30.1323C27.4292 30.1751 26.9045 30.1066 26.4352 29.9312C25.9489 29.7472 25.5223 29.4519 25.1981 29.0497C24.8483 28.6176 24.6222 28.0656 24.5668 27.4109H24.571C24.5582 27.2569 24.6051 27.0943 24.7118 26.9659L28.0563 22.9737C27.3524 22.9651 26.7296 23.0593 26.1451 23.2432C25.2536 23.5214 24.4217 24.0092 23.5088 24.6296C23.4064 24.7109 23.2742 24.7623 23.1291 24.7623H19.2685V32.0621L19.2855 36.7304H21.5252C21.7384 36.7304 21.9432 36.8416 22.0584 37.0385L24.8398 41.9079C25.245 42.6182 25.6034 43.23 26.0556 43.6365C26.4779 44.0131 27.0282 44.2484 27.8771 44.2741C28.1971 44.2826 28.4999 44.227 28.79 44.1072C28.9692 44.0345 29.1441 43.9361 29.3147 43.8077L27.5102 40.4231C27.3524 40.1236 27.4633 39.7513 27.7619 39.593C28.0605 39.4346 28.4317 39.5459 28.5895 39.8454L30.5518 43.5253C31.2813 43.8976 31.9425 44.0131 32.5398 43.8847C33.0858 43.7649 33.5977 43.4397 34.0798 42.9091L31.2557 38.4591C31.0723 38.1724 31.1576 37.7958 31.4434 37.6118C31.7292 37.4278 32.1046 37.5134 32.2881 37.8001L35.2657 42.4898C35.7861 42.7037 36.2895 42.7508 36.7673 42.6182C37.2237 42.4941 37.6802 42.1988 38.1367 41.7239L35.4406 36.6277C35.2828 36.3282 35.3937 35.9559 35.6965 35.7933C35.9952 35.635 36.3663 35.7462 36.5284 36.05L39.3183 41.3216C39.6809 41.5313 40.1032 41.5869 40.5042 41.5228C40.8583 41.4629 41.1953 41.3131 41.4769 41.0906C41.7456 40.8766 41.9547 40.5985 42.057 40.2819C42.1679 39.9396 42.1594 39.5416 41.976 39.1052L41.7328 38.6901ZM42.5434 37.6204H44.5867V24.7623C44.5867 24.7451 44.5867 24.728 44.5867 24.7152C44.5867 24.5141 44.5995 24.3258 44.6251 24.1461L42.5476 22.7555C42.5348 22.7469 42.5263 22.7383 42.5135 22.7298C42.2447 22.5458 41.9205 22.319 41.592 22.0922C40.4104 21.2621 39.1946 20.4063 37.885 20.064C37.1768 19.8757 36.3578 19.7517 35.5259 19.7388C34.7964 19.726 34.0542 19.7944 33.3546 19.9742C32.9365 20.0811 32.5355 20.2309 32.1601 20.432C31.8274 20.6074 31.5159 20.8257 31.2429 21.0824L29.848 22.7469C29.8053 22.8282 29.7456 22.9009 29.6731 22.9566L25.8252 27.5393C25.8807 27.8302 25.9958 28.0784 26.1537 28.2752C26.3371 28.502 26.5803 28.6732 26.8618 28.7759C27.1604 28.8871 27.5017 28.9299 27.8643 28.9C28.453 28.8529 29.0758 28.609 29.6389 28.1554L30.6884 27.2825C30.9571 27.06 31.1832 26.8546 31.405 26.6493C31.8999 26.1957 32.3905 25.7464 32.9066 25.4383C34.1054 24.7237 35.2955 24.6981 36.4772 26.6835L36.49 26.7049L42.5434 37.6204ZM44.8128 38.8527H43.179C43.4008 39.4988 43.388 40.115 43.2131 40.6584C43.0339 41.2189 42.6799 41.6939 42.2319 42.0533C41.7925 42.4042 41.255 42.6438 40.6962 42.7337C40.1459 42.8235 39.5743 42.7765 39.041 42.554C38.4225 43.2044 37.7698 43.6151 37.0872 43.8034C36.4047 43.9917 35.7093 43.9532 35.0097 43.7093C34.3442 44.4495 33.6105 44.9116 32.8 45.0871C31.9767 45.2668 31.0979 45.1427 30.1679 44.702C29.8778 44.9288 29.5749 45.1085 29.2593 45.2411C28.8113 45.4294 28.3421 45.515 27.8472 45.4979C26.6699 45.4636 25.8764 45.1128 25.245 44.5479C24.6435 44.0088 24.2383 43.3156 23.7818 42.5155L21.1753 37.9584H19.1533C19.0381 38.5489 18.8334 39.0453 18.5262 39.4432C18.01 40.1107 17.255 40.4616 16.2098 40.4402C16.197 40.4402 16.1885 40.4402 16.1757 40.4402H12.7118C11.8415 40.5814 11.0907 40.3674 10.5063 39.6871C9.98583 39.0838 9.63176 38.1082 9.48245 36.6705C9.47819 36.6533 9.47819 36.6362 9.47392 36.6191L8.56528 25.3014C8.38611 24.0776 8.58234 23.2176 9.07293 22.6271C9.56777 22.0323 10.31 21.7627 11.2272 21.72C11.2528 21.7157 11.2784 21.7157 11.304 21.7157H15.9667V21.72C16.8454 21.7114 17.6048 21.8569 18.1807 22.2291C18.6414 22.5287 18.9741 22.9523 19.1448 23.5257H22.9414C23.897 22.8795 24.7886 22.3746 25.7783 22.0623C26.7466 21.7585 27.7875 21.6515 29.0332 21.8013L30.3044 20.2822C30.3258 20.2523 30.3513 20.2223 30.3812 20.1967C30.7438 19.8543 31.1491 19.5677 31.5842 19.3366C32.0406 19.0927 32.5355 18.9087 33.0431 18.7761C33.8537 18.5664 34.7111 18.4851 35.543 18.5022C36.4857 18.5193 37.4029 18.6605 38.1964 18.8659C39.7108 19.2639 41.0204 20.1838 42.2917 21.0781C42.5775 21.2792 42.8548 21.4761 43.1918 21.6986C43.2046 21.7071 43.2131 21.7114 43.2259 21.72L45.0688 22.9523C45.1626 22.8239 45.2693 22.7041 45.3887 22.5971C45.9177 22.1222 46.6728 21.8868 47.6411 21.8868V21.8826H51.9326C51.9497 21.8826 51.9668 21.8826 51.9838 21.8868C53.0844 21.8826 53.976 22.0837 54.5946 22.5629C55.2857 23.0935 55.6056 23.9065 55.4691 25.0703C55.4691 25.0789 55.4648 25.0917 55.4648 25.1003L54.3088 37.1155C54.2234 38.1895 53.9376 39.0324 53.4342 39.6144C52.8967 40.2348 52.1502 40.5429 51.169 40.5001H47.3553C46.6941 40.5343 46.1353 40.3546 45.666 39.9781C45.3247 39.7042 45.0389 39.3277 44.8128 38.8527ZM13.855 34.1844C14.3115 34.1844 14.6826 34.5567 14.6826 35.0145C14.6826 35.4724 14.3115 35.8446 13.855 35.8446C13.3986 35.8446 13.0274 35.4724 13.0274 35.0145C13.0274 34.5567 13.3986 34.1844 13.855 34.1844ZM49.9831 34.1844C50.4396 34.1844 50.8107 34.5567 50.8107 35.0145C50.8107 35.4724 50.4396 35.8446 49.9831 35.8446C49.5267 35.8446 49.1555 35.4724 49.1555 35.0145C49.1555 34.5567 49.5267 34.1844 49.9831 34.1844ZM18.0442 30.6372L18.0228 24.1418C18.0228 24.129 18.0228 24.1161 18.0228 24.1033C17.9546 23.6968 17.7797 23.4272 17.5195 23.2561C17.1654 23.025 16.6321 22.9352 15.9752 22.9437H15.9667V22.948H11.3083C11.2997 22.948 11.2912 22.948 11.2827 22.948C10.7068 22.9737 10.2631 23.1149 10.0157 23.4144C9.75121 23.731 9.65736 24.283 9.78533 25.1388C9.7896 25.1559 9.7896 25.173 9.7896 25.1902L10.7025 36.5207V36.5421C10.8262 37.7145 11.0779 38.4676 11.4362 38.8827C11.7178 39.2121 12.106 39.3063 12.5667 39.2207C12.6008 39.2121 12.6392 39.2121 12.6734 39.2121V39.2079H16.1714C16.1927 39.2079 16.2141 39.2079 16.2354 39.2121C16.854 39.2207 17.2806 39.0367 17.5493 38.6901C17.865 38.2836 18.0143 37.6461 18.0399 36.8245L18.0442 30.6372Z" fill="#0075FD"/>
</svg>
