<svg width="64" height="64" viewBox="0 0 64 64" fill="none" xmlns="http://www.w3.org/2000/svg">
<rect width="64" height="64" rx="8" fill="#DBF9EF"/>
<g clip-path="url(#clip0_174_130)">
<path d="M19.5137 35.3545C17.8363 33.6772 13.0841 33.025 12.525 32.9318C12.2454 32.9318 11.9659 33.025 11.7796 33.2113C11.5932 33.3977 11.5 33.6772 11.5 33.9568C11.5932 34.5159 12.2454 39.2681 13.8296 40.9454C14.6682 41.7841 15.6 42.25 16.625 42.25C17.65 42.25 18.675 41.7841 19.4204 41.0386C21.2841 39.2682 21.2841 37.125 19.5137 35.3545ZM18.2091 39.7341C17.3704 40.5727 16.1591 40.6659 15.2273 39.7341C14.4819 38.9886 13.9228 36.8454 13.5501 35.075C15.3205 35.3545 17.4637 36.0068 18.2092 36.7522C19.2341 37.6841 19.2341 38.7091 18.2091 39.7341Z" fill="#0075FD"/>
<path d="M39.175 11.7796C38.8955 11.5932 38.6159 11.5 38.3363 11.5C37.7772 11.5932 33.025 12.2454 31.3477 13.8296C30.5091 14.6682 30.0432 15.6 30.0432 16.625C30.0432 17.65 30.5091 18.675 31.2546 19.4204C32.1863 20.3522 33.1182 20.8182 34.1432 20.8182C35.1682 20.8182 36.1 20.3523 37.0319 19.5137C38.7091 17.8364 39.3614 13.0841 39.4546 12.525C39.4546 12.2454 39.3613 11.9659 39.175 11.7796ZM35.6341 18.2091C34.6091 19.2341 33.5841 19.2341 32.5591 18.2091C32.0932 17.7432 31.9068 17.1841 31.9068 16.7182C31.9068 16.1591 32.1863 15.6932 32.6522 15.2273C33.3977 14.4819 35.5409 13.9228 37.3113 13.5501C37.0318 15.3204 36.3796 17.4637 35.6341 18.2091Z" fill="#0075FD"/>
<path d="M51.5683 22.6818H50.6365V18.9545C50.6365 18.3954 50.2637 18.0227 49.7047 18.0227C49.1457 18.0227 48.7729 18.3955 48.7729 18.9545V22.6818H43.182V18.9545C43.182 18.3954 42.8092 18.0227 42.2502 18.0227C41.6912 18.0227 41.3184 18.3955 41.3184 18.9545V22.6818H40.3866C39.8275 22.6818 39.4548 23.0545 39.4548 23.6136V25.4772C39.4548 26.0363 39.8276 26.409 40.3866 26.409C40.9457 26.409 41.3184 26.0362 41.3184 25.4772V24.5454H50.6366V26.4091H44.1139C43.5548 26.4091 43.1821 26.7818 43.1821 27.3409C43.1821 27.8999 43.5548 28.2727 44.1139 28.2727H49.7048V29.2044C49.7048 31.2544 48.0275 32.9317 45.9775 32.9317C43.9275 32.9317 42.2503 31.2544 42.2503 29.2044C42.2503 28.6453 41.8775 28.2727 41.3185 28.2727C40.7595 28.2727 40.3867 28.6454 40.3867 29.2044C40.3867 31.9999 42.4367 34.2362 45.0458 34.7022V47.8409C45.0458 49.425 43.8345 50.6363 42.2504 50.6363C40.6663 50.6363 39.4549 49.425 39.4549 47.8409V42.25C39.4549 39.6409 37.4049 37.5909 34.7958 37.5909C32.1867 37.5909 30.1367 39.6409 30.1367 42.25V47.8409C30.1367 49.425 28.9254 50.6363 27.3413 50.6363C25.7572 50.6363 24.5458 49.425 24.5458 47.8409V23.6136C24.5458 23.0545 24.1731 22.6818 23.614 22.6818C23.0549 22.6818 22.6822 23.0546 22.6822 23.6136V30.0432C21.8436 29.8568 21.0981 29.4841 20.4459 28.925C19.4209 27.9932 18.955 26.5022 18.955 24.7318C18.955 21.9363 21.8437 16.8113 23.6141 14.109C25.3846 16.8112 28.2732 21.9362 28.2732 24.7318C28.2732 26.6885 27.7141 28.1795 26.6891 29.1113C26.3163 29.4841 26.2232 30.0431 26.5959 30.4159C26.9686 30.7886 27.5277 30.8818 27.9005 30.5091C29.3913 29.2045 30.0437 27.2477 30.0437 24.7318C30.0437 20.1659 24.5459 12.2455 24.2664 11.8727C23.8937 11.4068 23.0551 11.4068 22.7755 11.8727C22.5892 12.2455 17.0914 20.1659 17.0914 24.7318C17.0914 27.7136 18.2096 29.3909 19.2346 30.3227C20.1664 31.2545 21.3779 31.8136 22.6824 32V47.8409C22.6824 50.45 24.7324 52.5 27.3415 52.5C29.9501 52.5 32.0001 50.45 32.0001 47.8409V42.25C32.0001 40.6659 33.2114 39.4545 34.7955 39.4545C36.3796 39.4545 37.5909 40.6659 37.5909 42.25V47.8409C37.5909 50.45 39.6409 52.5 42.2501 52.5C44.8592 52.5 46.9092 50.45 46.9092 47.8409V34.7022C49.5183 34.2363 51.5683 32 51.5683 29.2044V28.2727C52.1274 28.2727 52.5001 27.8999 52.5001 27.3409V23.6136C52.5001 23.0545 52.1273 22.6818 51.5683 22.6818Z" fill="#0075FD"/>
</g>
<defs>
<clipPath id="clip0_174_130">
<rect width="41" height="41" fill="white" transform="translate(11.5 11.5)"/>
</clipPath>
</defs>
</svg>
